<svg comefrom="https://iconsapi.com"  viewBox="0 0 1024 1024" version="1.1" xmlns="http://www.w3.org/2000/svg"><path d="M820.8 512l9.6-14.4c46.4-73.6 56-142.4 27.2-190.4s-92.8-73.6-180.8-67.2h-8c-38.4-80-92.8-129.6-153.6-129.6s-116.8 49.6-153.6 128c-88-8-156.8 12.8-188.8 65.6s-20.8 116.8 27.2 190.4l9.6 14.4-9.6 14.4c-46.4 73.6-56 142.4-27.2 190.4s83.2 67.2 153.6 67.2h35.2c38.4 80 92.8 128 153.6 128s116.8-49.6 153.6-129.6H704c73.6 0 126.4-24 153.6-67.2s20.8-116.8-27.2-190.4z m9.6-188.8c22.4 38.4 14.4 94.4-27.2 156.8l-3.2 4.8a608 608 0 0 0-86.4-86.4 600 600 0 0 0-32-128c73.6-3.2 126.4 14.4 148.8 52.8zM649.6 748.8a528 528 0 0 1-91.2-24l65.6-35.2 54.4-36.8a542.4 542.4 0 0 1-28.8 96z m-43.2-84.8a718.4 718.4 0 0 1-91.2 46.4 736 736 0 0 1-89.6-46.4 739.2 739.2 0 0 1-80-56 724.8 724.8 0 0 1 0-192 731.2 731.2 0 0 1 169.6-100.8 716.8 716.8 0 0 1 91.2 46.4 739.2 739.2 0 0 1 78.4 54.4 721.6 721.6 0 0 1 6.4 96 721.6 721.6 0 0 1-6.4 96 739.2 739.2 0 0 1-78.4 54.4z m-132.8 62.4a539.2 539.2 0 0 1-91.2 22.4 542.4 542.4 0 0 1-28.8-94.4l54.4 36.8z m-163.2-148.8a537.6 537.6 0 0 1-60.8-65.6 537.6 537.6 0 0 1 60.8-65.6c-1.6 20.8-3.2 43.2-3.2 65.6s1.6 44.8 3.2 65.6z m43.2-208a542.4 542.4 0 0 1 28.8-94.4 539.2 539.2 0 0 1 91.2 22.4l-64 35.2z m323.2 0l-54.4-36.8-65.6-35.2a528 528 0 0 1 91.2-24 542.4 542.4 0 0 1 28.8 96z m43.2 76.8a536 536 0 0 1 62.4 65.6 536 536 0 0 1-62.4 65.6c1.6-20.8 3.2-43.2 3.2-65.6s-1.6-44.8-3.2-65.6zM515.2 144c46.4 0 88 38.4 120 100.8a595.2 595.2 0 0 0-120 35.2 592 592 0 0 0-120-35.2c32-62.4 73.6-100.8 120-100.8zM225.6 480c-40-62.4-49.6-118.4-27.2-156.8s65.6-51.2 124.8-51.2h22.4a600 600 0 0 0-32 126.4 608 608 0 0 0-86.4 86.4z m-25.6 220.8c-22.4-38.4-14.4-94.4 27.2-156.8l3.2-4.8a608 608 0 0 0 86.4 86.4 600 600 0 0 0 32 126.4c-70.4 4.8-124.8-11.2-148.8-51.2zM515.2 880c-46.4 0-88-38.4-120-100.8a596.8 596.8 0 0 0 120-35.2 595.2 595.2 0 0 0 120 35.2c-32 62.4-73.6 100.8-120 100.8z m315.2-179.2c-22.4 38.4-75.2 56-148.8 51.2a600 600 0 0 0 32-128 608 608 0 0 0 86.4-86.4l3.2 4.8c41.6 64 51.2 120 27.2 158.4z" fill="#0084FF" /><path d="M632 428.8l-46.4-46.4a16 16 0 0 0-22.4 0l-28.8 28.8-110.4 110.4a16 16 0 0 0-4.8 8l-11.2 59.2a16 16 0 0 0 16 19.2h3.2l59.2-11.2 8-4.8 110.4-110.4 28.8-28.8a16 16 0 0 0-1.6-24z m-57.6-12.8l24 24-6.4 8-12.8-12.8-12.8-12.8z m-100.8 150.4l-30.4 6.4 6.4-30.4 96-96 12.8 12.8 12.8 12.8z" fill="#0084FF" /></svg>